Coordinates
version=1
nRows=4
nColumns=63
inDegrees=yes

Units are S.I. units (second, meters, Newtons, ...)
If the header above contains a line with 'inDegrees', this indicates whether rotational values are in degrees (yes) or radians (no).

endheader
time	pelvis_tilt	pelvis_list	pelvis_rotation	pelvis_tx	pelvis_ty	pelvis_tz	hip_flexion_r	hip_adduction_r	hip_rotation_r	knee_angle_r	knee_angle_r_beta	ankle_angle_r	subtalar_angle_r	mtp_angle_r	hip_flexion_l	hip_adduction_l	hip_rotation_l	knee_angle_l	knee_angle_l_beta	ankle_angle_l	subtalar_angle_l	mtp_angle_l	L5_S1_Flex_Ext	L5_S1_Lat_Bending	L5_S1_axial_rotation	L4_L5_Flex_Ext	L4_L5_Lat_Bending	L4_L5_axial_rotation	L3_L4_Flex_Ext	L3_L4_Lat_Bending	L3_L4_axial_rotation	L2_L3_Flex_Ext	L2_L3_Lat_Bending	L2_L3_axial_rotation	L1_L2_Flex_Ext	L1_L2_Lat_Bending	L1_L2_axial_rotation	L1_T12_Flex_Ext	L1_T12_Lat_Bending	L1_T12_axial_rotation	Abs_r3	Abs_r2	Abs_r1	Abs_t1	Abs_t2	neck_flexion	neck_bending	neck_rotation	arm_flex_r	arm_add_r	arm_rot_r	elbow_flex_r	pro_sup_r	wrist_flex_r	wrist_dev_r	arm_flex_l	arm_add_l	arm_rot_l	elbow_flex_l	pro_sup_l	wrist_flex_l	wrist_dev_l
      0.00000000	      7.49215861	     -4.94680369	     96.70501158	      0.40513457	      0.74891677	      0.72005167	      7.23076760	      0.61243726	     -5.52949896	      0.33383681	      0.00582655	     23.75774987	      0.89363561	      0.00000000	      9.80088007	     -1.10369080	      1.91483633	      1.01421534	      0.01770140	     31.09915042	     15.29592052	      0.00000000	      0.35286517	      0.37723935	     -1.68396222	      0.65530591	      0.50172834	     -1.78920986	      0.57972219	      0.91721976	     -1.78920986	      0.40328961	      0.91721976	     -1.47346694	      0.32767060	      0.76926649	     -1.36821931	      0.20162716	      0.58434376	     -1.26297167	      2.52048064	      4.26740702	     -9.36569269	      0.00000000	      0.00000000	     28.20801361	     -0.77949632	    -16.90916158	     19.14081568	    -12.13511477	     86.29505130	     40.18572214	     24.00268662	      8.19230642	      6.22188078	      8.37082356	     -8.29285910	     52.74967597	     42.34301148	     85.12411017	      5.63839029	      0.23426663
      0.01886792	      7.79355398	     -4.83696795	     97.47228186	      0.40655402	      0.74890399	      0.71713620	      6.65994390	      1.06411317	     -3.95625427	      0.33642421	      0.00587171	     21.66416352	     -3.67563951	      0.00000000	      9.37540718	     -1.46746367	      1.98677101	      1.13031201	      0.01972767	     30.49021579	     15.74217851	      0.00000000	      0.37839754	      0.39012455	     -1.77395597	      0.70272207	      0.51886566	     -1.88482822	      0.62166932	      0.94854884	     -1.88482822	      0.43247055	      0.94854884	     -1.55221147	      0.35137996	      0.79554199	     -1.44133923	      0.21621635	      0.60430294	     -1.33046698	      2.70285579	      4.41316699	     -9.86621091	      0.00000000	      0.00000000	     28.25224847	     -1.11222314	    -16.85379286	     19.65361939	    -12.07367899	     89.18479383	     40.56901447	     17.83922502	      9.21100575	      5.37643265	      8.09790187	     -8.44335887	     52.32271044	     42.44949606	     80.68381077	      5.89486457	      0.46449935
      0.03773585	      8.15388696	     -4.70044546	     97.99536852	      0.40800522	      0.74911745	      0.71508982	      6.27642331	      1.59117461	     -1.76331081	      0.32253120	      0.00562923	     19.70086969	     -8.53744344	      0.00000000	      9.04199267	     -1.93460545	      1.65918060	      1.24516871	      0.02173229	     30.01460258	     16.33009683	      0.00000000	      0.38903159	      0.41505514	     -1.78474497	      0.72247056	      0.55202334	     -1.89629153	      0.63913999	      1.00916508	     -1.89629153	      0.44462420	      1.00916508	     -1.56165185	      0.36125473	      0.84638045	     -1.45010529	      0.22229265	      0.64292042	     -1.33855873	      2.77881372	      4.69518679	     -9.92621612	      0.00000000	      0.00000000	     28.25557137	     -1.54412598	    -16.95446234	     19.63353456	    -12.17646898	     89.73115564	     40.93526231	     15.55741070	      9.60639569	      5.23849885	      8.29293479	     -8.45129477	     53.13745804	     42.18031606	     75.57229905	      5.93211019	      0.31033802
      0.05660377	      8.54687680	     -4.48829156	     98.41333943	      0.40933207	      0.74951421	      0.71349435	      5.96512038	      2.12078168	     -2.77679643	      0.30895486	      0.00539228	     19.53331013	     -7.79731350	      0.00000000	      8.66506721	     -2.44343356	      2.09393916	      1.23806175	      0.02160825	     29.52363950	     15.86056465	      0.00000000	      0.38209559	      0.45080140	     -1.79710705	      0.70958971	      0.59956586	     -1.90942624	      0.62774484	      1.09607852	     -1.90942624	      0.43669705	      1.09607852	     -1.57246867	      0.35481396	      0.91927421	     -1.46014948	      0.21832942	      0.69829137	     -1.34783029	      2.72927056	      5.09955557	     -9.99497029	      0.00000000	      0.00000000	     28.25819998	     -1.65912827	    -16.49234643	     19.41060635	    -12.31015927	     89.14284402	     41.13019246	     17.21907645	      9.58029146	      4.78690759	      8.30938344	     -8.31674084	     53.18193603	     42.04903152	     73.02564834	      5.91748039	      0.49213720
